<svg width="512" height="512" viewBox="0 0 512 512" fill="none" xmlns="http://www.w3.org/2000/svg">
  <defs>
    <filter id="glow" x="-50%" y="-50%" width="200%" height="200%">
      <feGaussianBlur stdDeviation="6" result="blur"/>
      <feMerge>
        <feMergeNode in="blur"/>
        <feMergeNode in="SourceGraphic"/>
      </feMerge>
    </filter>
  </defs>
  <rect width="512" height="512" rx="110" fill="#05060A"/>
  <!-- Axes -->
  <line x1="96" y1="256" x2="472" y2="256" stroke="white" stroke-width="10" stroke-linecap="round"/>
  <line x1="176" y1="72" x2="176" y2="440" stroke="white" stroke-width="10" stroke-linecap="round"/>
  <!-- Arrowheads -->
  <path d="M472 256 L444 238 L444 274 Z" fill="white"/>
  <path d="M96 256 L124 238 L124 274 Z" fill="white"/>
  <path d="M176 72 L158 100 L194 100 Z" fill="white"/>
  <path d="M176 440 L158 412 L194 412 Z" fill="white"/>
  <!-- W Curve -->
  <path d="M238 148
           C258 238 266 302 292 366
           C316 424 342 424 360 360
           C380 292 388 240 408 204
           C430 166 454 166 472 144"
        stroke="#3B82F6"
        stroke-width="18"
        stroke-linecap="round"
        stroke-linejoin="round"
        filter="url(#glow)"
        fill="none"/>
</svg>
